<?xml version="1.0" encoding="utf-8"?>
<!-- Generator: Adobe Illustrator 25.4.1, SVG Export Plug-In . SVG Version: 6.00 Build 0)  -->
<svg version="1.1" id="Layer_1" xmlns="http://www.w3.org/2000/svg" xmlns:xlink="http://www.w3.org/1999/xlink" x="0px" y="0px"
	 viewBox="0 0 1920 1080" style="enable-background:new 0 0 1920 1080;" xml:space="preserve">
<g>
	<g>
		<g>
			<path d="M1774.7,427.8c-19.5,0-35.4-15.9-35.4-35.4c0-19.5,15.9-35.4,35.4-35.4s35.4,15.9,35.4,35.4
				C1810.1,412,1794.2,427.8,1774.7,427.8z M1774.7,361c-17.3,0-31.4,14.1-31.4,31.4c0,17.3,14.1,31.4,31.4,31.4
				s31.4-14.1,31.4-31.4C1806.2,375.1,1792.1,361,1774.7,361z"/>
		</g>
		<g>
			<path d="M1765.3,376.9c2.2-0.4,5.5-0.7,8.9-0.7c4.6,0,7.8,0.8,9.9,2.6c1.8,1.5,2.8,3.7,2.8,6.4c0,4.1-2.8,7-5.8,8.1v0.1
				c2.3,0.9,3.7,3.1,4.5,6.2c1,4,1.9,7.7,2.5,9h-6.1c-0.5-1-1.2-3.6-2.1-7.6c-0.9-4.2-2.4-5.5-5.8-5.6h-3v13.2h-5.8V376.9z
				 M1771.2,391.1h3.5c4,0,6.4-2.1,6.4-5.3c0-3.5-2.5-5.1-6.3-5.1c-1.9,0-3.1,0.1-3.6,0.3V391.1z"/>
		</g>
	</g>
	<g>
		<g>
			<path d="M145.6,457.6c12.1,22.6,25.6,43.9,41.7,63.8c10.5,13,22.4,24.4,36.6,33.2c15.9,9.9,35.2,10.3,50.2-4.5
				c14.8-14.7,24.8-32.4,32.2-51.4c7.6-19.6,13.9-39.8,20.5-59.8c2.6-8,4.3-16.4,6.4-24.6c0.3-1.2,0-2.5,0-3.9
				c-9-2.1-16.1-7.1-20.8-15c-6.5-11.1-6.4-22.7-0.2-33.7c5.4-9.7,14.2-15.6,25.6-15.1c12.6,0.6,25.3,11.3,27,26.7
				c1.5,13.7-2.6,25-14.6,32.6c-3.2,2.1-7,3.4-11.2,5.3c3.5,12.8,6.9,26,10.6,39.1c6.1,21.2,13.5,42,23.2,61.9
				c7.7,15.9,17,30.7,30.8,42c7,5.7,15.2,8,24.3,7.4c16.6-1.1,28.8-10.7,40.1-21.3c23.1-21.6,40.2-47.7,55.2-75.2
				c1.2-2.2,2.3-4.5,3.4-6.7c0.1-0.3,0-0.6-0.8-0.1c-5-4.8-11.1-8.9-14.9-14.5c-9.4-13.8-5.7-33.5,7.3-44
				c10.4-8.4,27.8-6.3,37.3,4.5c11.4,13.1,9.7,36-3.5,47c-5.3,4.4-11.4,6.8-18.3,6.2c-4-0.3-5.3,1.7-5.9,5
				c-2.7,15.3-5.5,30.6-8.2,45.9c-3.9,21.5-7.8,43-11.8,64.5c-3.1,16.9-6.2,33.7-9.7,50.5c-0.5,2.4-2.8,5.2-5,6.5
				c-7.1,4-14.3,8.5-22,10.7c-15.6,4.6-31.6,8.2-47.5,11.5c-7.3,1.5-15,1.7-22.5,2.1c-20.2,1.1-40.4,2.3-60.6,2.7
				c-16.4,0.3-33,0.1-49.4-1c-26.1-1.6-52.1-4.1-77.5-11.2c-12.2-3.4-23.8-8.4-34-16c-2-1.5-3.3-4.6-3.8-7.2c-6.1-31-12-62-17.9-93
				c-4.1-21.5-8-43-11.9-64.4c-1.2-6.3-1.4-6.7-7.8-6.6c-11.1,0.2-23.4-9.3-27-23.1c-4-15.5,5.9-34,17.9-38.1
				c10.2-3.5,23.2-0.7,30.6,8c11.6,13.8,9.8,35.3-2.3,45.9C153.8,452.9,149.7,454.9,145.6,457.6z"/>
			<path d="M1008.5,416.5c-52.3,0-103.3,0-155.4,0c4.4-7.2,8.3-13.6,12.2-20.1c9.7-16,19.5-32.1,29.1-48.1c1.4-2.3,2.9-3.1,5.7-3.1
				c61.4,0.1,122.8,0.1,184.1,0.1c11.6,0,22.3,2.9,31.2,10.4c8.7,7.3,12.3,16.8,10.9,28.2c-1.3,11.6-7.2,20.6-15.1,28.8
				c-23.7,24.6-47.4,49.3-71,73.9c-19.9,20.7-39.8,41.5-59.7,62.3c-0.7,0.8-1.4,1.7-2.6,3.3c68,0,135.3,0,203.6,0
				c-4.1,7.7-7.6,14.4-11.3,21.1c-8.5,15.5-17.2,30.9-25.7,46.3c-1.3,2.3-2.7,3.3-5.5,3.3c-82-0.1-164,0.1-246-0.3
				c-12.8-0.1-24.7-4.3-31.7-16.5c-6.5-11.3-4.1-22.6,1.3-33.5c5.6-11.1,14.8-19.1,23.2-27.9c17.8-18.6,35.6-37.3,53.4-55.9
				c17.5-18.3,35.1-36.5,52.6-54.7C997.3,428.7,1002.5,423,1008.5,416.5z"/>
			<path d="M1164.7,622.7c1.9-3.3,3.5-6.3,5.2-9.3c21.2-36.8,42.5-73.6,63.7-110.4c18.4-32,36.7-64,55.3-95.9
				c8.1-13.9,16-27.8,25.1-41c6.2-9,15.3-15.5,25.9-19.1c11.5-4,22-1.4,32,5c12.1,7.8,19.8,19.2,26.7,31.4
				c19.8,35.3,39.6,70.6,59.5,105.9c20.3,36.1,40.7,72.3,61,108.4c4.6,8.2,9.3,16.4,14.4,25.1c-85.2,0-169.7,0-254.2,0
				c-0.1-0.3-0.1-0.5-0.2-0.8c47.6-16.9,95.2-33.8,143.5-51c-24.2-40.1-48.3-79.7-72.7-120.1c-1.2,1.4-2.2,2.4-2.8,3.5
				c-23.9,41-47.8,82.1-71.8,123.1c-8.4,14.5-16.8,28.9-25.4,43.3c-0.6,1-2.2,2.2-3.3,2.2c-26.3,0.1-52.6,0.1-79,0.1
				C1166.9,623.1,1166.1,622.9,1164.7,622.7z"/>
			<path d="M1403.2,345.2c2.1,0,3.5,0,4.9,0c64.1,0,128.2-0.6,192.2,0.3c30.8,0.4,59.2,9.7,82,31.6c15.2,14.6,23.4,32.8,26.2,53.7
				c2.5,18.6,1.7,36.8-5,54.5c-8.2,21.8-22.5,38.4-42.6,50.1c-1.9,1.1-3.8,2.2-6.5,3.7c26.7,27.8,53.1,55.2,79.9,83.1
				c-1.2,0.2-2.2,0.4-3.2,0.4c-30.6,0-61.2-0.1-91.8,0.1c-3.9,0-5.7-2.2-7.8-4.4c-20.2-21-40.4-42.2-60.7-63.1
				c-1.5-1.6-4.3-2.6-6.5-2.7c-15.2-0.2-30.5,0-45.7-0.2c-1.7,0-4.2-1-4.9-2.3c-11.9-21.5-23.6-43.1-35.3-64.7
				c-0.4-0.8-0.8-1.7-1.5-3.3c2.5,0,4.5,0,6.5,0c37,0,73.9,0.1,110.9-0.1c12-0.1,23.9-1.5,34.2-9c9.8-7.2,12.5-17.1,11.4-28.4
				c-1.1-10.5-6.1-18.6-16-23.5c-8.8-4.3-18.2-5.3-27.7-5.3c-50.1-0.2-100.2-0.1-150.4,0c-4,0-6.1-1-8-4.7
				c-10.5-20.3-21.3-40.4-32-60.6C1404.9,348.9,1404.2,347.3,1403.2,345.2z"/>
			<path d="M877,345.4c-8.9,14.4-17.3,28-25.7,41.7c-5.4,8.7-10.9,17.3-16.1,26.1c-1.5,2.5-3,3.4-5.9,3.4
				c-36.3-0.1-72.6-0.1-108.9-0.1c-29.9,0-54.8,19-62,48c-5.4,21.9-3.6,43.1,10.4,61.8c10.1,13.6,23.7,21.9,40.7,24.2
				c4.4,0.6,8.8,0.9,13.2,0.9c39.6,0.1,79.3,0,118.9,0.1c1.7,0,3.4,0,5.8,0c-5.2,10.1-10.1,19.8-15,29.4
				c-6.6,12.9-13.2,25.9-20,38.6c-0.8,1.5-3.2,3.1-4.9,3.1c-31.1,0.1-62.2,0.9-93.2-0.2c-38-1.4-69.7-17-94.3-46.4
				c-17.9-21.3-27.9-46-31.2-73.3c-3.7-30.8-0.5-60.9,14-88.8c15.6-29.9,39.6-50.4,71.8-61.2c16.4-5.5,33.2-7.3,50.4-7.3
				c47.7,0,95.5,0,143.2,0C870.8,345.4,873.5,345.4,877,345.4z"/>
			<path d="M493.3,645.1c-2.7,12.1-5.3,24.1-8,36.2c-1.5,6.6-3.3,13.1-4.5,19.7c-0.8,4.4-2.6,7.3-6.7,9.4
				c-13.7,7-28.3,11.5-43.2,14.9c-10.6,2.4-21.2,4.4-31.9,6.1c-7.5,1.2-15,2.2-22.6,2.4c-21.7,0.6-43.4,1.5-65,0.8
				c-30.6-0.9-60.8-5.6-90-15.1c-7.9-2.5-15.5-6.2-23.1-9.6c-3.7-1.6-5.3-4.6-6.1-8.8c-2.5-13.1-5.7-26-8.6-39
				c-1.5-6.6-3-13.1-4.6-20.5c9.8,9.3,20.4,16.1,32,21.4c18,8.1,36.4,15,56,17.6c16.1,2.2,32.2,3.7,48.4,4.8
				c13.1,0.9,26.3,1.5,39.4,0.8c26.6-1.3,53.2-3.5,78.7-11.7C454.6,667.9,475.4,660.1,493.3,645.1z"/>
			<path d="M429.9,472.9c-5.2-4-10.5-7-14.4-11.2c-9.7-10.4-6.8-30.6,5-37.9c14.5-9,30.4-1.5,34.7,15.8c3.5,14.3-7.3,30.5-20.4,31.4
				c-0.9,0.1-2.5,1.8-2.4,2.6c3,18.9,4.3,38.2,11.7,56.2c2,4.8,4.8,9.2,7.3,13.9c-10.5,13.9-40.7,11.8-50.9-3
				C416.4,520.2,423.2,495.9,429.9,472.9z"/>
			<path d="M220.7,543.5c14.7-21.9,15.8-47.2,19.7-72.3c-12.7-1.1-19.7-8-22.7-19c-3.7-13.1,2.8-26.4,14.5-30.8
				c13.7-5.1,28.9,5,30.6,20.2c1.4,12.2-5.7,25.1-17.2,28.4c-2.4,0.7-3.3,2.1-2.6,4.5c6.2,20.7,12.2,41.5,24.4,59.7
				c0.4,0.5,0.6,1.1,1,1.6c4.1,6.2,4.1,6.7-2.1,11C253.6,555.7,232.7,554.1,220.7,543.5z"/>
			<path d="M1185,685.5c6.9-17.7,13.6-34.3,19.9-51.1c1.1-3,2.3-4.4,5.6-4.1c3.3,0.3,6.6,0.1,10.3,0.1c0,26.1,0,51.7,0,77.7
				c-4.1,0-8.1,0-12.8,0c0-20.6,0-41.4,0-62.2c-0.6-0.1-1.1-0.3-1.7-0.4c-8.5,21.8-17.1,43.6-26,66.3c-9.5-22.7-18.6-44.6-27.7-66.6
				c-0.5,0.1-0.9,0.2-1.4,0.3c0,20.7,0,41.4,0,62.4c-1.9,0.2-3.3,0.3-5,0.5c0-26,0-51.7,0-78.1c4.1,0,8.4-0.2,12.6,0.2
				c1.2,0.1,2.6,1.8,3.2,3.2c7.1,16.2,14,32.4,20.9,48.6C1183.3,683.2,1183.9,683.9,1185,685.5z"/>
			<path d="M1503.6,644.3c-4-6.7-9-11.7-17.7-11c-5.8,0.5-11.3,5.1-12.5,10.7c-1.4,6.2,0.6,11.3,6.3,14.4c5.8,3.2,11.9,5.7,17.8,8.6
				c17.7,8.8,16.2,31.4,1.2,39.7c-10.5,5.9-21.4,5.7-31.8-0.8c-2.6-1.6-4.8-3.9-7.8-6.4c1.8-1.5,3.2-2.6,4.5-3.6
				c-0.1,0.5-0.2,1-0.3,1.5c4.8,2.8,9.2,6.6,14.3,8c9.3,2.6,14.4-2.6,17.2-8.7c3.2-6.9-0.1-14.8-7.5-18.8
				c-5.4-2.9-11.1-5.3-16.6-7.9c-15.2-7.2-13.5-29.2-1.1-37.2c11.1-7.2,28-4.7,36,5.5C1508.6,642,1506.9,643,1503.6,644.3z"/>
			<path d="M586.7,630.7c15,0,29.9,0,45.1,0c0.1,1.4,0.2,2.7,0.4,4.4c-10.9,0-21.5,0-32.2,0c0,10.3,0,20.2,0,30.5c10,0,19.8,0,30,0
				c0.1,1.6,0.2,2.9,0.4,4.7c-10.3,0-20.2,0-30.4,0c0,11.5,0,22.5,0,34.1c8.7,0,17.2,0,25.7,0c1.6,0,3.3-0.3,4.7,0.1
				c1.2,0.3,2.1,1.6,3.1,2.4c-0.3,0.4-0.6,0.8-0.8,1.2c-15.2,0-30.3,0-45.9,0C586.7,682.5,586.7,657,586.7,630.7z"/>
			<path d="M1678,707.9c0-14.7-0.1-29,0-43.4c0-4.1,1.8-7.4,6.2-8.3c4.7-1,9,1.5,10.7,6.5c2.8,8.4,5.1,16.9,7.7,25.3
				c0.2,0.7,0.5,1.4,1.1,3.3c0.9-1.9,1.5-2.9,1.8-3.9c2.5-8.4,5-16.9,7.4-25.4c1.2-4.4,3.9-6.2,8.3-6c4.5,0.2,7.5,2.1,8.5,6.6
				c0.2,0.8,0.5,1.5,0.5,2.3c0,14.2,0,28.5,0,43c-3.4,0-6.5,0-10.2,0c0-14.9,0-29.9,0-44.9c-0.5-0.2-1.1-0.5-1.6-0.7
				c-0.9,1.4-2.1,2.6-2.6,4.1c-3.8,12.5-7.5,25-11.3,37.5c-0.2,0.8-0.4,1.6-0.9,2.2c-0.8,1.1-1.7,2-2.6,2.9c-1-1.1-2.6-2-3-3.2
				c-1.8-5.5-3.3-11.2-4.9-16.8c-2.1-7.1-4-14.2-6.3-21.3c-0.5-1.6-2.2-2.9-3.3-4.4c-0.6,1.6-1.6,3.3-1.6,4.9
				c-0.2,12-0.1,24.1-0.1,36.1C1681.9,707.1,1681.9,709.2,1678,707.9z"/>
			<path d="M884.6,657.6c1.3,0,2.6,0,4.2,0c-4.7,15.6-9.3,30.9-14,46.3c-1.4,4.7-5.1,5.4-9.3,5.5c-4.2,0.1-6.9-1.4-8.2-5.6
				c-1.2-4.2-2.6-8.3-4-12.5c-0.4-0.1-0.9-0.2-1.3-0.2c-1.1,3.4-2.3,6.8-3.3,10.2c-1.9,6.6-3.3,7.9-8.6,8c-5.6,0-7.5-1.7-9.5-7.9
				c-4.4-14-8.9-27.9-13.3-41.9c-0.2-0.5-0.3-1.1-0.5-1.8c3.3,0,6.3,0,9.7,0c4.2,13,8.5,26.3,12.8,39.6c0.4,1.2,0.5,2.5,1.2,3.6
				c0.5,0.8,1.5,1.6,2.4,1.7c0.6,0.1,1.9-0.9,2-1.5c1.7-8.6,7.9-16.6,3.3-26.2c-2.4-5-3.5-10.7-5.2-16.1c7.3-2.8,9.5-1.8,11.6,4.8
				c3.8,11.7,7.5,23.4,11.4,35.1c0.5,1.6,2.1,2.8,3.2,4.1c0.9-1.3,2.2-2.5,2.7-3.9C876.3,685.2,880.4,671.5,884.6,657.6z"/>
			<path d="M667.1,689.7c2.6-8.8,5.2-17.6,7.8-26.5c1.6-5.7,4.7-7.8,10.4-7.1c4.3,0.6,6.9,3.9,6.9,9.2c0,13.9,0,27.8-0.1,41.8
				c0,0.3-0.2,0.6-0.4,1.1c-2.7,0-5.5,0-9,0c0-3,0-6.1,0-9.2c0-10.6,0.1-21.2-0.1-31.8c0-1.4-1.1-2.9-1.7-4.3
				c-1,1.3-2.4,2.4-2.9,3.9c-3.7,12-7.1,24.1-10.6,36.2c-0.2,0.6-0.2,1.3-0.5,1.8c-1,1.5-2.1,2.9-3.2,4.3c-1.1-1.4-2.8-2.6-3.3-4.1
				c-3.8-12.2-7.4-24.4-11-36.6c-0.2-0.8-0.3-1.7-0.7-2.2c-0.8-1-1.8-1.7-2.8-2.5c-0.5,1-1.3,2.1-1.3,3.1
				c-0.1,9.8-0.1,19.6-0.1,29.4c0,3.9,0,7.9,0,11.8c-0.5,0.3-0.9,0.5-1.4,0.8c-0.8-1-2.3-2.1-2.4-3.1c-0.2-14.2-0.1-28.5-0.1-42.7
				c0-3.7,2-6,5.5-6.6c4.2-0.7,8.3-0.1,10,4.3c2.8,7.4,4.9,14.9,7.3,22.4c0.7,2.2,1.4,4.4,2.1,6.6
				C666.1,689.6,666.6,689.7,667.1,689.7z"/>
			<path d="M715,708.4c0,8.4,0,16.3,0,24.4c-3.3,0-6.2,0-9.4,0c0-25.1,0-50.1,0-74.7c8.1,0,16.2-0.9,24.1,0.2
				c15.3,2,23.2,11.8,23,25.8c-0.3,14.9-9.5,23.5-24.2,24.3C724.2,708.6,720,708.4,715,708.4z M715.4,661.1c0,14.6,0,28.9,0,43.2
				c8.3,2,15.9,1.9,21.6-5c6-7.3,6.1-21.7,0.4-30.4C732.2,661.1,724.7,659.1,715.4,661.1z"/>
			<path d="M1098.4,682.7c2,0,3.4,0,4.8,0c1.4,0,2.8,0,4.5,0c0,16.5,0,32.8,0,49.2c-3,0-5.8,0-9,0c0-8.6,0-17.3,0-27
				c-8.9,5-17.5,6.4-26,1.4c-5.9-3.4-9.4-8.8-11.3-15.2c-3.9-12.9,1.7-28,12.3-33.3c9.8-4.9,23.8-4,31.3,8c-1.1,0.5-2.2,1-3.4,1.5
				c-0.4-0.3-0.8-0.6-1-0.9c-2.9-3.7-5.9-7-10.9-7.6c-8.2-1-13.2,2.1-16.1,9.9c-3.3,9.3-3.3,18.6,0.2,27.7c1.7,4.4,4.4,8.1,9.4,9.2
				c8.9,1.9,15-2.6,15.4-11.7C1098.5,690.4,1098.4,686.9,1098.4,682.7z"/>
			<path d="M787.3,656.1c15.3,0,27.5,12.2,27.4,27.7c0,14.8-12.3,26.5-28,26.5c-14.9,0-27-11.8-27.1-26.5
				C759.5,667.9,771.3,656.1,787.3,656.1z M803.9,682.2c-0.2,0-0.3,0-0.5-0.1c0-1.9,0.1-3.8,0-5.7c-0.8-9.8-5.9-16.1-13.6-16.7
				c-9.6-0.7-16,3.8-17.5,14.4c-1,6.7-0.5,13.8,0.8,20.5c1.6,8.3,6.5,11.8,14.1,11.9c7.6,0.1,12.8-3.8,14.9-11.8
				C803,690.7,803.2,686.4,803.9,682.2z"/>
			<path d="M963.2,683.3c4.8,8.5,9.3,16.4,14.3,25.1c-3.6,0-6.4,0.3-9.1-0.1c-1.4-0.2-3.3-1.2-3.9-2.4c-3.8-7-7.4-14.2-10.6-20.5
				c3.8-2.6,8-4.4,10.3-7.5c1.6-2.2,1.3-6.5,0.7-9.6c-1.2-6.2-9.1-9.3-18.6-7.6c0,15.7,0,31.4,0,47.5c-3.4,0-6.3,0-9.5,0
				c0-16.6,0-33.2,0-49.8c9.6,0,19.1-0.5,28.4,0.2c5.8,0.5,10.2,6.7,10.2,12.1c0,5.6-3.6,10.2-9.6,12.1
				C965.2,682.8,964.4,683,963.2,683.3z"/>
			<path d="M1325.3,684.2c10.4-2.8,13.4-6.7,11.9-14.8c-1.3-6.9-7.9-10.2-19-9c0,15.8,0,31.7,0,47.8c-3.6,0-6.6,0-9.8,0
				c0-16-0.1-31.8,0.1-47.6c0-1,2-2.8,3-2.8c7.6-0.1,15.2-0.1,22.8,0.3c6.7,0.3,11.9,4.8,12.4,10.2c0.8,7.9-2.1,12.2-9.7,14.5
				c-0.4,0.1-0.9,0.3-1.8,0.7c4.6,8.1,9.1,16.1,14.1,24.9c-3.8,0-7,0.1-10.2-0.1c-0.9-0.1-2.1-0.9-2.5-1.7
				C1332.7,699.2,1329,691.7,1325.3,684.2z"/>
			<path d="M1012.7,665.4c0,3.7,0,7.5,0,11.2c0,9.5,0,19,0,28.5c0,2.5-0.5,4.1-3.8,2.8c0-15.2-0.2-30.6,0.2-45.9
				c0-1.9,2.5-5.3,4.1-5.4c2.9-0.3,7.1,0.4,8.9,2.3c4.3,4.5,7.6,10,11.2,15.2c3,4.3,5.8,8.7,8.7,13c0.7,1,1.7,1.8,2.6,2.8
				c0.4-0.2,0.8-0.3,1.3-0.5c0-10.6,0-21.2,0-32.1c1.9,0,3.1,0,4.8,0c0,9,0,17.8,0,26.6c0,6.5,0.2,13-0.1,19.5
				c-0.1,1.9-1.5,3.8-2.3,5.7c-1.9-1-4.3-1.5-5.4-3c-4.9-6.8-9.3-13.8-14-20.8c-3.8-5.8-7.7-11.5-11.6-17.3c-0.8-1.2-2-2.2-3-3.3
				C1013.8,664.9,1013.2,665.1,1012.7,665.4z"/>
			<path d="M1514.3,658.4c8.5-2,9.6-1.4,12.5,5.9c3.4,8.6,7,17.2,10.5,25.8c0.6,1.4,1.4,2.8,2.4,4.9c1-1.3,1.8-2.2,2.2-3.2
				c4.4-10.3,8.8-20.5,12.9-30.9c1.1-2.9,2.5-4,5.8-3.1c-4.1,10-8.2,19.9-12.4,29.9c-5.9,14-12.1,28-17.9,42.1
				c-1.1,2.8-2.3,3.9-5.7,2.9c2.6-6.3,4.9-12.8,7.9-18.9c1.5-3.1,1.3-5.5,0-8.4c-5.9-14.4-11.6-28.9-17.4-43.4
				C1514.9,660.8,1514.7,659.6,1514.3,658.4z"/>
			<path d="M1423.9,695.7c-0.1,1.3,0.3,2.9-0.3,3.9c-8.1,13.2-27.2,14.3-38.3,2.4c-8.1-8.7-9.2-22.7-2.6-33.8
				c5.9-9.9,17.8-14.4,29.6-11.1c5.2,1.5,9.1,4.8,11.7,9.6c-2.1,1.8-3.4,1.7-5.2-0.7c-3.6-4.8-8.7-7.5-14.8-6.7
				c-6.8,0.9-10.9,5.4-12.9,11.7c-2.7,8.7-2.3,17.4,1.1,25.9c2.1,5.2,5.4,9,11.6,9.7c7,0.8,12.3-1.8,16.2-7.5
				c0.8-1.2,1.5-2.4,2.3-3.5C1422.9,695.6,1423.4,695.6,1423.9,695.7z"/>
			<path d="M1593,660.8c-4.8,0-8.7-0.1-12.6,0c-3.8,0.1-7.3,1-8.7,5.1c-1.4,4.2,1,6.9,4.3,9c4.1,2.7,8.3,5,12.3,7.7
				c5.8,4,8.4,10,6.8,15.3c-1.8,6.3-7.1,10.3-14.5,10.4c-5.5,0-11-0.6-16.5-1c-0.8-0.1-1.5-0.9-2-2.5c1.9,0,3.9-0.1,5.8,0
				c3,0.2,6,0.7,8.9,0.6c4-0.2,7.6-1.8,8.5-6.2c0.8-4-1.3-7-4.5-9.1c-3.7-2.4-7.5-4.6-11.2-7c-5.1-3.2-8.2-7.7-7.2-13.8
				c1.1-6.5,5.4-10.8,12.2-11.4c5.4-0.4,10.9,0,16.4,0.2C1591.5,658.2,1591.9,659.4,1593,660.8z"/>
			<path d="M1645.5,683.5c0,6.3,0.2,11.6-0.1,17c-0.2,3.8,1.5,5,5,5c6.8-0.1,13.6,0,20.4,0c0.1,0.4,0.3,0.8,0.4,1.2
				c-0.9,0.6-1.8,1.6-2.7,1.6c-8.9,0.1-17.8,0.2-26.6,0c-4.7-0.1-6.6-3.7-6.7-7.8c-0.2-11.4-0.2-22.8,0-34.2
				c0.1-5.7,2.8-8.3,8.6-8.5c7.4-0.2,14.9-0.2,22.4-0.1c1.2,0,2.4,1,3.6,1.5c-0.2,0.5-0.3,1.1-0.5,1.6c-5.8,0-11.7,0-17.5,0
				c-5.4,0.1-6.3,1-6.3,6.4c0,4.3,0,8.5,0,12.9c6.8,0.5,13.3,0.9,19.8,1.4c0,0,0,0.9,0,1.9C1658.8,683.5,1652.4,683.5,1645.5,683.5z
				"/>
			<path d="M1241.6,680.6c7.1,0,13.5,0,19.8,0c0.2,0.4,0.4,0.9,0.6,1.3c-1,0.6-2,1.6-3,1.7c-4.6,0.2-9.2,0.2-13.8,0
				c-2.9-0.1-3.9,1-3.8,3.9c0.2,4.1,0.1,8.2,0.1,12.3c0,4.1,1.8,6,6.1,5.7c5.1-0.3,10.1-0.1,15.2-0.1c1.5,0,3,0,4.6,0
				c0.1,0.5,0.2,1,0.4,1.5c-1,0.5-2,1.4-3,1.4c-8.7,0.1-17.4,0.2-26.2,0c-4.4-0.1-6.8-3-6.9-7c-0.3-11.9-0.3-23.8,0-35.6
				c0.1-5,3.1-7.7,8.2-7.8c8.7-0.2,17.4-0.1,26.9,0.9c-1,0.7-2.1,2-3.1,2c-5.5,0.2-11.1,0.1-16.6,0.1c-3.2,0-5.3,1.4-5.5,4.6
				C1241.4,670.3,1241.6,675.2,1241.6,680.6z"/>
			<path d="M928.4,659.2c-1.1,0.6-2.2,1.5-3.3,1.6c-5.1,0.2-10.1,0-15.2,0.1c-5,0-6.5,1.6-6.6,6.5c0,4.2,0,8.5,0,12.7
				c7,0.6,13.4,1.1,19.8,1.8c0,0,0,0.9,0,1.7c-6.4,0-12.7,0-19.7,0c0,6.6-0.2,12.9,0.2,19.1c0.1,1.1,3,2.7,4.6,2.8
				c5.8,0.3,11.7,0.1,17.6,0.2c1,0,2,0.8,3,1.2c-0.9,0.5-1.8,1.5-2.7,1.6c-8.6,0.1-17.1,0.1-25.7,0.1c-4.2,0-6.6-2.5-6.6-6.5
				c-0.2-12.3-0.3-24.7,0-37.1c0.1-4.2,2.9-6.9,7.5-7c8.7-0.1,17.4,0,26.1,0C927.8,658.3,928.1,658.7,928.4,659.2z"/>
			<path d="M1609.3,708.1c0-15.8,0-31.3,0-46.6c-3.7-2-8.7,1.4-12.3-3.9c11.3,0,21.2,0,31.1,0.1c1,0,2,0.9,3,1.4
				c-1.1,0.6-2.1,1.6-3.2,1.7c-2.8,0.2-5.6,0.1-8.8,0.1c0,16,0,31.4,0,47.2C1615.8,708.1,1612.9,708.1,1609.3,708.1z"/>
			<path d="M1302.6,660.9c-3.4,0-6.9,0-10.9,0c0,15.9,0,31.4,0,47.3c-3.4,0-6.3,0-9.6,0c0-15.6,0-31.1,0-46.6
				c-4-0.6-7.7-1.2-11.4-1.8c-0.1,0,0-1.2,0.1-2c9.9,0,19.6-0.1,29.4,0.1c1,0,2,1.1,3,1.6C1303,659.9,1302.8,660.4,1302.6,660.9z"/>
			<path d="M995.4,708.2c-3.1,0-5.9,0-9,0c0-16.8,0-33.5,0-50.4c2.9,0,5.8,0,9,0C995.4,674.4,995.4,691.1,995.4,708.2z"/>
			<path d="M1358.6,657.7c3.1,0,6,0,9,0c0,16.7,0,33.4,0,50.4c-3,0-5.8,0-9,0C1358.6,691.5,1358.6,674.9,1358.6,657.7z"/>
			<path d="M990.9,644.7c-4.3-0.1-6.8-2.8-6.7-7.4c0.1-3.5,3.5-6.8,7-6.7c3.2,0.1,7,3.9,7,7.1C998.2,641.5,994.8,644.7,990.9,644.7z
				"/>
			<path d="M1369.6,637.8c-0.1,3.9-3.4,6.9-7.4,6.9c-3.4-0.1-6.8-3.7-6.7-7.1c0.1-3.6,3.9-7.1,7.5-6.9
				C1366.5,630.8,1369.7,634.1,1369.6,637.8z"/>
		</g>
	</g>
</g>
</svg>
