<svg width="154" height="36" viewBox="0 0 154 36" fill="none" xmlns="http://www.w3.org/2000/svg">
<path d="M150.153 8.03366C148.403 8.03366 146.976 6.60633 146.976 4.85582C146.976 3.10531 148.403 1.67798 150.153 1.67798C151.903 1.67798 153.33 3.10531 153.33 4.85582C153.33 6.6153 151.903 8.03366 150.153 8.03366ZM150.153 2.03706C148.6 2.03706 147.335 3.30281 147.335 4.85582C147.335 6.40883 148.6 7.67458 150.153 7.67458C151.706 7.67458 152.971 6.40883 152.971 4.85582C152.98 3.30281 151.715 2.03706 150.153 2.03706Z" fill="white"/>
<path d="M149.31 3.4603C149.507 3.42439 149.803 3.39746 150.109 3.39746C150.522 3.39746 150.809 3.46927 150.997 3.63086C151.159 3.76551 151.249 3.96301 151.249 4.20539C151.249 4.57344 150.997 4.83377 150.728 4.93252V4.94149C150.934 5.02229 151.06 5.21978 151.132 5.49807C151.222 5.85714 151.302 6.18929 151.356 6.30599H150.809C150.764 6.21622 150.701 5.98282 150.62 5.62374C150.539 5.24671 150.405 5.13001 150.1 5.12103H149.83V6.30599H149.31V3.4603V3.4603ZM149.839 4.73503H150.154C150.513 4.73503 150.728 4.54651 150.728 4.25925C150.728 3.94505 150.504 3.80142 150.163 3.80142C149.992 3.80142 149.884 3.8104 149.839 3.82835V4.73503V4.73503Z" fill="white"/>
<path d="M3.93415 10.7116C5.02018 12.7404 6.23187 14.6525 7.67692 16.4389C8.61934 17.6059 9.68742 18.6292 10.9619 19.4192C12.389 20.3079 14.1213 20.3438 15.4676 19.0153C16.796 17.6956 17.6935 16.1067 18.3577 14.4011C19.0398 12.6416 19.6053 10.8283 20.1977 9.03288C20.431 8.31472 20.5836 7.56066 20.7721 6.82455C20.799 6.71683 20.7721 6.60012 20.7721 6.47445C19.9643 6.28593 19.3271 5.83708 18.9052 5.1279C18.3218 4.13146 18.3308 3.09014 18.8873 2.10267C19.3719 1.23191 20.1618 0.702266 21.185 0.747151C22.3159 0.801013 23.4558 1.76155 23.6083 3.144C23.743 4.37384 23.375 5.38824 22.2979 6.07048C22.0107 6.259 21.6696 6.3757 21.2927 6.54627C21.6068 7.69532 21.912 8.88027 22.2441 10.0563C22.7916 11.9594 23.4558 13.8266 24.3264 15.613C25.0175 17.0403 25.8522 18.3689 27.0908 19.3833C27.7191 19.895 28.4551 20.1015 29.2719 20.0476C30.7618 19.9489 31.8568 19.0871 32.871 18.1355C34.9443 16.1965 36.4791 13.8535 37.8255 11.3848C37.9332 11.1874 38.0319 10.9809 38.1306 10.7834C38.1396 10.7565 38.1306 10.7295 38.0588 10.7744C37.6101 10.3435 37.0626 9.97546 36.7215 9.47275C35.8778 8.23393 36.2099 6.46547 37.3767 5.52289C38.3101 4.76883 39.8719 4.95734 40.7245 5.92685C41.7477 7.10283 41.5952 9.15856 40.4104 10.146C39.9347 10.541 39.3872 10.7565 38.7679 10.7026C38.4089 10.6757 38.2922 10.8552 38.2383 11.1514C37.996 12.5249 37.7447 13.8984 37.5023 15.2719C37.1523 17.2019 36.8023 19.132 36.4432 21.062C36.165 22.5791 35.8868 24.0872 35.5726 25.5954C35.5278 25.8108 35.3213 26.0622 35.1239 26.1789C34.4866 26.5379 33.8404 26.9419 33.1493 27.1394C31.7491 27.5523 30.313 27.8755 28.8859 28.1717C28.2307 28.3064 27.5396 28.3244 26.8664 28.3603C25.0534 28.459 23.2404 28.5667 21.4273 28.6026C19.9553 28.6296 18.4654 28.6116 16.9934 28.5129C14.6508 28.3692 12.3172 28.1448 10.0375 27.5075C8.94246 27.2022 7.9013 26.7534 6.98581 26.0711C6.8063 25.9365 6.68962 25.6582 6.64474 25.4248C6.09724 22.6419 5.56768 19.8591 5.03813 17.0762C4.67014 15.1462 4.3201 13.2161 3.97005 11.2951C3.86235 10.7295 3.8444 10.6936 3.26997 10.7026C2.27369 10.7205 1.16971 9.86774 0.846596 8.62892C0.487578 7.23749 1.37615 5.57675 2.4532 5.2087C3.3687 4.8945 4.53551 5.14586 5.19969 5.92685C6.24084 7.16567 6.07929 9.09572 4.99326 10.0473C4.67014 10.2897 4.30215 10.4692 3.93415 10.7116Z" fill="white"/>
<path d="M81.3838 7.0114C76.6896 7.0114 72.1121 7.0114 67.4359 7.0114C67.8308 6.36506 68.1809 5.79054 68.5309 5.20703C69.4015 3.77072 70.2811 2.32543 71.1428 0.889123C71.2684 0.682653 71.403 0.61084 71.6544 0.61084C77.1653 0.619817 82.6762 0.619815 88.1782 0.619815C89.2193 0.619815 90.1797 0.880148 90.9785 1.55342C91.7594 2.20874 92.0825 3.06154 91.9568 4.08492C91.8402 5.12624 91.3106 5.93417 90.6015 6.67028C88.4744 8.87861 86.3472 11.0959 84.229 13.3042C82.4429 15.1625 80.6567 17.0297 78.8706 18.8969C78.8078 18.9687 78.745 19.0495 78.6373 19.1931C84.7406 19.1931 90.7811 19.1931 96.9113 19.1931C96.5433 19.8843 96.2292 20.4858 95.8971 21.0873C95.1341 22.4787 94.3533 23.8611 93.5904 25.2436C93.4737 25.45 93.348 25.5398 93.0967 25.5398C85.7369 25.5308 78.377 25.5488 71.0171 25.5129C69.8682 25.5039 68.8002 25.1269 68.1719 24.0317C67.5885 23.0173 67.8039 22.0029 68.2886 21.0244C68.7912 20.028 69.6169 19.3098 70.3709 18.5198C71.9685 16.8501 73.5661 15.1714 75.1638 13.5017C76.7345 11.859 78.3141 10.2251 79.8849 8.59134C80.3785 8.10659 80.8452 7.5949 81.3838 7.0114Z" fill="white"/>
<path d="M95.4027 25.525C95.5733 25.2288 95.7169 24.9595 95.8695 24.6902C97.7723 21.3867 99.684 18.0832 101.587 14.7796C103.238 11.907 104.881 9.03439 106.55 6.17075C107.277 4.92295 107.986 3.67516 108.803 2.4902C109.36 1.68227 110.176 1.09877 111.128 0.775602C112.16 0.416525 113.102 0.649925 114 1.22445C115.086 1.92465 115.777 2.94802 116.396 4.04321C118.173 7.21207 119.951 10.3809 121.737 13.5498C123.559 16.7905 125.39 20.0401 127.212 23.2808C127.625 24.0169 128.046 24.753 128.504 25.534C120.857 25.534 113.273 25.534 105.689 25.534C105.68 25.5071 105.68 25.4891 105.671 25.4622C109.943 23.9451 114.215 22.428 118.55 20.884C116.378 17.2842 114.215 13.7293 112.025 10.1026C111.918 10.2283 111.828 10.3181 111.774 10.4168C109.629 14.0974 107.484 17.7869 105.33 21.4675C104.576 22.7691 103.822 24.0618 103.05 25.3545C102.996 25.4442 102.852 25.552 102.754 25.552C100.393 25.561 98.0326 25.5609 95.663 25.5609C95.6002 25.5609 95.5284 25.543 95.4027 25.525Z" fill="white"/>
<path d="M116.809 0.617686C116.998 0.617686 117.124 0.617686 117.249 0.617686C123.002 0.617686 128.756 0.563823 134.5 0.644616C137.264 0.680523 139.813 1.51538 141.86 3.48133C143.224 4.79197 143.96 6.42577 144.211 8.30196C144.436 9.97167 144.364 11.6055 143.763 13.1944C143.027 15.1514 141.743 16.6415 139.939 17.6919C139.769 17.7906 139.598 17.8893 139.356 18.024C141.752 20.5196 144.122 22.9793 146.527 25.4838C146.419 25.5018 146.33 25.5198 146.24 25.5198C143.493 25.5198 140.747 25.5108 138 25.5287C137.65 25.5287 137.489 25.3312 137.3 25.1337C135.487 23.2486 133.674 21.3455 131.852 19.4693C131.718 19.3257 131.466 19.2359 131.269 19.2269C129.905 19.209 128.531 19.2269 127.167 19.209C127.014 19.209 126.79 19.1192 126.727 19.0025C125.659 17.0724 124.609 15.1334 123.559 13.1944C123.523 13.1226 123.487 13.0418 123.424 12.8982C123.649 12.8982 123.828 12.8982 124.008 12.8982C127.329 12.8982 130.641 12.9071 133.961 12.8892C135.039 12.8802 136.107 12.7545 137.031 12.0813C137.911 11.4349 138.153 10.5462 138.054 9.5318C137.956 8.58922 137.507 7.86209 136.618 7.42222C135.828 7.03621 134.985 6.94644 134.132 6.94644C129.635 6.92848 125.139 6.93746 120.633 6.94644C120.274 6.94644 120.085 6.85667 119.915 6.52452C118.972 4.7022 118.003 2.89783 117.043 1.08449C116.962 0.949831 116.899 0.806202 116.809 0.617686Z" fill="white"/>
<path d="M69.5801 0.63623C68.7812 1.92891 68.0273 3.14978 67.2734 4.37963C66.7887 5.16062 66.295 5.93264 65.8283 6.72261C65.6937 6.94704 65.5591 7.02783 65.2988 7.02783C62.0407 7.01885 58.7826 7.01885 55.5245 7.01885C52.8409 7.01885 50.606 8.72448 49.9597 11.3278C49.4751 13.2938 49.6366 15.1969 50.8932 16.8756C51.7997 18.0964 53.0204 18.8415 54.5462 19.048C54.9411 19.1018 55.336 19.1288 55.731 19.1288C59.2852 19.1378 62.8485 19.1288 66.4027 19.1378C66.5553 19.1378 66.7079 19.1378 66.9233 19.1378C66.4566 20.0444 66.0168 20.9152 65.577 21.777C64.9846 22.935 64.3922 24.102 63.7819 25.2421C63.7101 25.3767 63.4947 25.5204 63.3421 25.5204C60.5508 25.5294 57.7594 25.6012 54.977 25.5024C51.5663 25.3767 48.7211 23.9763 46.5132 21.3371C44.9066 19.425 44.009 17.2077 43.7128 14.757C43.3808 11.9921 43.668 9.29002 44.9694 6.78545C46.3696 4.10134 48.5237 2.26106 51.4138 1.29155C52.8857 0.797817 54.3936 0.63623 55.9374 0.63623C60.2187 0.63623 64.5089 0.63623 68.7902 0.63623C69.0236 0.63623 69.2659 0.63623 69.5801 0.63623Z" fill="white"/>
<path d="M35.1414 27.5428C34.8991 28.629 34.6657 29.7063 34.4234 30.7925C34.2887 31.385 34.1272 31.9685 34.0195 32.5609C33.9477 32.9559 33.7861 33.2163 33.4181 33.4048C32.1885 34.0332 30.8781 34.4371 29.5407 34.7423C28.5893 34.9578 27.6379 35.1373 26.6776 35.2899C26.0044 35.3976 25.3313 35.4874 24.6491 35.5054C22.7014 35.5592 20.7538 35.64 18.8151 35.5772C16.0686 35.4964 13.358 35.0745 10.7372 34.2217C10.0281 33.9972 9.34598 33.6651 8.66385 33.3599C8.33175 33.2163 8.18815 32.9469 8.11634 32.5699C7.89196 31.3939 7.60474 30.2359 7.34445 29.0689C7.20982 28.4764 7.07519 27.8929 6.93158 27.2286C7.81118 28.0635 8.76257 28.6739 9.80373 29.1497C11.4193 29.8768 13.0708 30.4962 14.83 30.7296C16.275 30.9271 17.7201 31.0618 19.1741 31.1605C20.3499 31.2413 21.5346 31.2952 22.7104 31.2324C25.0979 31.1157 27.4854 30.9182 29.7741 30.182C31.6679 29.5896 33.5348 28.8894 35.1414 27.5428Z" fill="white"/>
<path d="M29.4521 12.0863C28.9854 11.7272 28.5097 11.4579 28.1597 11.0808C27.289 10.1472 27.5493 8.33389 28.6084 7.67858C29.9099 6.87065 31.337 7.54392 31.7229 9.09694C32.0371 10.3806 31.0677 11.8349 29.8919 11.9157C29.8111 11.9247 29.6675 12.0773 29.6765 12.1491C29.9458 13.8457 30.0624 15.5783 30.7266 17.1942C30.9061 17.625 31.1575 18.02 31.3818 18.442C30.4394 19.6898 27.7288 19.5012 26.8133 18.1726C28.2404 16.3324 28.8508 14.151 29.4521 12.0863Z" fill="white"/>
<path d="M10.6753 18.4211C11.9947 16.4551 12.0934 14.1839 12.4434 11.9307C11.3035 11.832 10.6753 11.2126 10.406 10.2251C10.0739 9.04914 10.6573 7.85521 11.7074 7.46023C12.9371 7.0024 14.3013 7.90907 14.4539 9.27357C14.5796 10.3688 13.9423 11.5268 12.9101 11.823C12.6947 11.8859 12.614 12.0115 12.6768 12.227C13.2333 14.0852 13.7718 15.9524 14.8668 17.5862C14.9027 17.6311 14.9206 17.685 14.9565 17.7298C15.3245 18.2864 15.3245 18.3313 14.7681 18.7173C13.6282 19.5162 11.7523 19.3726 10.6753 18.4211Z" fill="white"/>
<path d="M97.2244 31.1602C97.8437 29.5713 98.445 28.0811 99.0105 26.573C99.1092 26.3037 99.2169 26.178 99.5131 26.2049C99.8093 26.2319 100.106 26.2139 100.438 26.2139C100.438 28.5569 100.438 30.855 100.438 33.189C100.07 33.189 99.7106 33.189 99.2887 33.189C99.2887 31.3397 99.2887 29.4725 99.2887 27.6053C99.2349 27.5964 99.19 27.5784 99.1362 27.5694C98.3732 29.5264 97.6013 31.4834 96.8025 33.5212C95.9499 31.4834 95.1331 29.5174 94.3163 27.5425C94.2714 27.5515 94.2355 27.5604 94.1906 27.5694C94.1906 29.4277 94.1906 31.2859 94.1906 33.1711C94.0201 33.189 93.8945 33.198 93.7419 33.2159C93.7419 30.8819 93.7419 28.5748 93.7419 26.2049C94.1099 26.2049 94.4958 26.187 94.8728 26.2229C94.9805 26.2319 95.1061 26.3845 95.16 26.5101C95.7973 27.9644 96.4166 29.4187 97.0359 30.8729C97.0718 30.9537 97.1256 31.0166 97.2244 31.1602Z" fill="white"/>
<path d="M125.82 27.4702C125.461 26.8687 125.013 26.4199 124.232 26.4827C123.711 26.5276 123.218 26.9405 123.11 27.4432C122.984 27.9998 123.164 28.4576 123.675 28.7359C124.196 29.0232 124.743 29.2476 125.273 29.5079C126.861 30.2979 126.727 32.3267 125.381 33.0718C124.438 33.6014 123.46 33.5835 122.526 33C122.293 32.8563 122.096 32.6499 121.826 32.4254C121.988 32.2908 122.114 32.192 122.23 32.1023C122.221 32.1472 122.212 32.192 122.203 32.2369C122.634 32.4883 123.029 32.8294 123.487 32.9551C124.321 33.1885 124.779 32.7217 125.031 32.1741C125.318 31.5547 125.022 30.8455 124.357 30.4864C123.873 30.2261 123.361 30.0106 122.868 29.7772C121.503 29.1309 121.656 27.156 122.769 26.4378C123.765 25.7915 125.282 26.0159 126 26.9315C126.269 27.2637 126.117 27.3535 125.82 27.4702Z" fill="white"/>
<path d="M43.525 26.2513C44.8713 26.2513 46.2086 26.2513 47.5729 26.2513C47.5819 26.377 47.5908 26.4937 47.6088 26.6463C46.6305 26.6463 45.6791 26.6463 44.7187 26.6463C44.7187 27.571 44.7187 28.4597 44.7187 29.3843C45.6162 29.3843 46.4958 29.3843 47.4113 29.3843C47.4203 29.5279 47.4293 29.6446 47.4472 29.8062C46.5228 29.8062 45.6342 29.8062 44.7187 29.8062C44.7187 30.8386 44.7187 31.826 44.7187 32.8674C45.4996 32.8674 46.2625 32.8674 47.0254 32.8674C47.169 32.8674 47.3216 32.8404 47.4472 32.8763C47.5549 32.9033 47.6357 33.02 47.7255 33.0918C47.6985 33.1277 47.6716 33.1636 47.6537 33.1995C46.2894 33.1995 44.9341 33.1995 43.5339 33.1995C43.525 30.9014 43.525 28.6123 43.525 26.2513Z" fill="white"/>
<path d="M141.474 33.1714C141.474 31.8517 141.465 30.568 141.474 29.2753C141.474 28.9073 141.636 28.611 142.03 28.5302C142.452 28.4405 142.838 28.6649 142.991 29.1138C143.242 29.8678 143.449 30.6309 143.682 31.3849C143.7 31.4478 143.727 31.5106 143.781 31.6812C143.862 31.5106 143.915 31.4208 143.942 31.3311C144.167 30.577 144.391 29.814 144.607 29.0509C144.714 28.6559 144.957 28.4943 145.351 28.5123C145.755 28.5302 146.025 28.7008 146.114 29.1048C146.132 29.1766 146.159 29.2394 146.159 29.3112C146.159 30.586 146.159 31.8697 146.159 33.1714C145.854 33.1714 145.576 33.1714 145.244 33.1714C145.244 31.8338 145.244 30.4872 145.244 29.1407C145.199 29.1227 145.145 29.0958 145.1 29.0778C145.019 29.2035 144.912 29.3112 144.867 29.4459C144.526 30.568 144.194 31.6902 143.853 32.8123C143.835 32.8841 143.817 32.9559 143.772 33.0098C143.7 33.1085 143.619 33.1893 143.538 33.2701C143.449 33.1714 143.305 33.0906 143.269 32.9828C143.108 32.4891 142.973 31.9774 142.829 31.4747C142.641 30.8373 142.47 30.2 142.264 29.5626C142.219 29.419 142.066 29.3023 141.968 29.1676C141.914 29.3112 141.824 29.4639 141.824 29.6075C141.806 30.6847 141.815 31.7709 141.815 32.8482C141.824 33.0995 141.824 33.2881 141.474 33.1714Z" fill="white"/>
<path d="M70.2626 28.6634C70.3793 28.6634 70.496 28.6634 70.6396 28.6634C70.2178 30.0638 69.8049 31.4373 69.383 32.8198C69.2574 33.2417 68.9253 33.3045 68.5483 33.3135C68.1713 33.3225 67.929 33.1878 67.8123 32.8108C67.7046 32.4337 67.5789 32.0657 67.4533 31.6887C67.4174 31.6797 67.3725 31.6707 67.3366 31.6707C67.2379 31.9759 67.1302 32.2811 67.0404 32.5864C66.8699 33.1788 66.7442 33.2955 66.2685 33.3045C65.7659 33.3045 65.5953 33.1519 65.4158 32.5953C65.0209 31.3386 64.617 30.0908 64.2221 28.834C64.2041 28.7891 64.1951 28.7352 64.1772 28.6724C64.4734 28.6724 64.7426 28.6724 65.0478 28.6724C65.4248 29.8394 65.8107 31.0333 66.1967 32.2273C66.2326 32.335 66.2416 32.4517 66.3044 32.5505C66.3493 32.6223 66.439 32.6941 66.5198 32.7031C66.5737 32.712 66.6904 32.6223 66.6993 32.5684C66.8519 31.7964 67.4084 31.0782 66.9955 30.2164C66.7801 29.7676 66.6814 29.2559 66.5288 28.7711C67.184 28.5198 67.3815 28.6095 67.57 29.202C67.911 30.2523 68.2431 31.3027 68.5932 32.353C68.6381 32.4966 68.7817 32.6043 68.8804 32.721C68.9612 32.6043 69.0779 32.4966 69.1227 32.3709C69.5177 31.1411 69.8857 29.9112 70.2626 28.6634Z" fill="white"/>
<path d="M50.7419 31.5372C50.9753 30.7473 51.2087 29.9573 51.442 29.1583C51.5856 28.6466 51.8639 28.4581 52.3755 28.5209C52.7614 28.5748 52.9948 28.871 52.9948 29.3468C52.9948 30.5946 52.9948 31.8425 52.9858 33.0993C52.9858 33.1262 52.9679 33.1531 52.9499 33.198C52.7076 33.198 52.4563 33.198 52.1421 33.198C52.1421 32.9287 52.1421 32.6504 52.1421 32.3721C52.1421 31.4205 52.1511 30.469 52.1331 29.5174C52.1331 29.3917 52.0344 29.2571 51.9806 29.1314C51.8908 29.2481 51.7651 29.3468 51.7203 29.4815C51.3882 30.5587 51.083 31.645 50.7689 32.7312C50.7509 32.7851 50.7509 32.8479 50.724 32.8928C50.6342 33.0274 50.5355 33.1531 50.4368 33.2788C50.338 33.1531 50.1855 33.0454 50.1406 32.9107C49.7995 31.8155 49.4764 30.7203 49.1533 29.6251C49.1353 29.5533 49.1264 29.4725 49.0904 29.4276C49.0186 29.3378 48.9289 29.275 48.8391 29.2032C48.7943 29.293 48.7225 29.3917 48.7225 29.4815C48.7135 30.3612 48.7135 31.241 48.7135 32.1208C48.7135 32.4709 48.7135 32.8299 48.7135 33.18C48.6686 33.207 48.6327 33.2249 48.5878 33.2519C48.516 33.1621 48.3814 33.0633 48.3724 32.9736C48.3545 31.6988 48.3634 30.4151 48.3634 29.1403C48.3634 28.8082 48.5429 28.6017 48.8571 28.5479C49.2341 28.485 49.602 28.5389 49.7546 28.9339C50.0059 29.5982 50.1944 30.2715 50.4098 30.9447C50.4727 31.1422 50.5355 31.3397 50.5983 31.5372C50.6522 31.5283 50.6971 31.5372 50.7419 31.5372Z" fill="white"/>
<path d="M55.0404 33.2233C55.0404 33.9774 55.0404 34.6866 55.0404 35.4137C54.7442 35.4137 54.4839 35.4137 54.1967 35.4137C54.1967 33.1605 54.1967 30.9162 54.1967 28.7079C54.9237 28.7079 55.6508 28.6271 56.3598 28.7258C57.7331 28.9054 58.4421 29.7851 58.4242 31.0419C58.3973 32.3795 57.5715 33.1515 56.2521 33.2233C55.8662 33.2413 55.4892 33.2233 55.0404 33.2233ZM55.0763 28.9772C55.0763 30.2878 55.0763 31.5715 55.0763 32.8553C55.8213 33.0348 56.5034 33.0258 57.015 32.4064C57.5536 31.7511 57.5625 30.4584 57.0509 29.6774C56.5842 28.9772 55.911 28.7977 55.0763 28.9772Z" fill="white"/>
<path d="M89.4525 30.9134C89.632 30.9134 89.7577 30.9134 89.8833 30.9134C90.009 30.9134 90.1347 30.9134 90.2872 30.9134C90.2872 32.3947 90.2872 33.8579 90.2872 35.3301C90.018 35.3301 89.7667 35.3301 89.4794 35.3301C89.4794 34.5581 89.4794 33.7771 89.4794 32.9063C88.6806 33.3552 87.9087 33.4809 87.1458 33.032C86.6163 32.7268 86.3021 32.242 86.1316 31.6675C85.7816 30.5095 86.2842 29.154 87.2356 28.6782C88.1152 28.2383 89.3717 28.3191 90.0449 29.3963C89.9462 29.4412 89.8474 29.4861 89.7397 29.531C89.7038 29.5041 89.6679 29.4771 89.65 29.4502C89.3897 29.1181 89.1204 28.8218 88.6717 28.7679C87.9357 28.6782 87.4869 28.9565 87.2266 29.6567C86.9304 30.4915 86.9304 31.3264 87.2446 32.1433C87.3971 32.5383 87.6395 32.8704 88.0882 32.9692C88.8871 33.1397 89.4346 32.7358 89.4705 31.9189C89.4615 31.6047 89.4525 31.2905 89.4525 30.9134Z" fill="white"/>
<path d="M61.5289 28.5283C62.9021 28.5283 63.9972 29.6235 63.9882 31.0149C63.9882 32.3435 62.8842 33.3938 61.4751 33.3938C60.1377 33.3938 59.0517 32.3345 59.0427 31.0149C59.0337 29.5876 60.0928 28.5283 61.5289 28.5283ZM63.0188 30.8713C63.0009 30.8713 62.9919 30.8713 62.974 30.8623C62.974 30.6918 62.9829 30.5212 62.974 30.3506C62.9022 29.4709 62.4444 28.9054 61.7533 28.8515C60.8917 28.7887 60.3172 29.1926 60.1826 30.1442C60.0928 30.7456 60.1377 31.383 60.2544 31.9844C60.398 32.7295 60.8378 33.0437 61.5199 33.0527C62.2021 33.0617 62.6688 32.7116 62.8573 31.9934C62.938 31.6343 62.956 31.2483 63.0188 30.8713Z" fill="white"/>
<path d="M77.3175 30.9714C77.7483 31.7344 78.1522 32.4436 78.601 33.2246C78.2779 33.2246 78.0265 33.2515 77.7842 33.2156C77.6585 33.1977 77.488 33.1079 77.4341 33.0002C77.0931 32.3718 76.7699 31.7254 76.4827 31.1599C76.8238 30.9265 77.2008 30.7649 77.4072 30.4866C77.5508 30.2891 77.5239 29.9031 77.47 29.6248C77.3623 29.0683 76.6533 28.79 75.8006 28.9426C75.8006 30.352 75.8006 31.7613 75.8006 33.2066C75.4954 33.2066 75.2351 33.2066 74.9479 33.2066C74.9479 31.7165 74.9479 30.2263 74.9479 28.7361C75.8095 28.7361 76.6622 28.6912 77.497 28.7541C78.0176 28.7989 78.4125 29.3555 78.4125 29.8403C78.4125 30.343 78.0894 30.7559 77.5508 30.9265C77.497 30.9265 77.4252 30.9444 77.3175 30.9714Z" fill="white"/>
<path d="M109.818 31.0517C110.751 30.8003 111.02 30.4502 110.886 29.7231C110.769 29.1037 110.177 28.8074 109.18 28.9151C109.18 30.3335 109.18 31.7608 109.18 33.2061C108.857 33.2061 108.588 33.2061 108.301 33.2061C108.301 31.7698 108.292 30.3515 108.31 28.9331C108.31 28.8433 108.489 28.6817 108.579 28.6817C109.261 28.6728 109.943 28.6728 110.625 28.7087C111.227 28.7356 111.693 29.1396 111.738 29.6243C111.81 30.3335 111.55 30.7195 110.868 30.926C110.832 30.935 110.787 30.9529 110.706 30.9888C111.119 31.7159 111.523 32.4341 111.972 33.2241C111.631 33.2241 111.343 33.233 111.056 33.2151C110.975 33.2061 110.868 33.1343 110.832 33.0625C110.482 32.3982 110.15 31.7249 109.818 31.0517Z" fill="white"/>
<path d="M81.76 29.3651C81.76 29.6972 81.76 30.0383 81.76 30.3705C81.76 31.2233 81.76 32.0761 81.76 32.9289C81.76 33.1534 81.7151 33.297 81.4189 33.1803C81.4189 31.8158 81.4009 30.4333 81.4368 29.0599C81.4368 28.8893 81.6612 28.5841 81.8048 28.5751C82.0651 28.5482 82.4421 28.611 82.6037 28.7816C82.9896 29.1855 83.2858 29.6793 83.6089 30.1461C83.8782 30.5321 84.1295 30.9271 84.3898 31.3131C84.4526 31.4028 84.5424 31.4747 84.6231 31.5644C84.659 31.5465 84.6949 31.5375 84.7398 31.5195C84.7398 30.568 84.7398 29.6164 84.7398 28.6379C84.9104 28.6379 85.0181 28.6379 85.1706 28.6379C85.1706 29.4459 85.1706 30.2358 85.1706 31.0258C85.1706 31.6093 85.1886 32.1928 85.1617 32.7763C85.1527 32.9469 85.027 33.1174 84.9552 33.288C84.7847 33.1982 84.5693 33.1534 84.4706 33.0187C84.0308 32.4083 83.6358 31.7799 83.214 31.1515C82.8729 30.6308 82.5229 30.1191 82.1728 29.5985C82.101 29.4907 81.9933 29.401 81.9036 29.3022C81.8587 29.3202 81.8048 29.3381 81.76 29.3651Z" fill="white"/>
<path d="M126.781 28.7356C127.543 28.556 127.642 28.6099 127.903 29.2652C128.208 30.0372 128.531 30.8092 128.845 31.5813C128.899 31.7069 128.971 31.8326 129.06 32.0211C129.15 31.9044 129.222 31.8236 129.258 31.7339C129.653 30.8092 130.048 29.8936 130.416 28.96C130.514 28.6997 130.64 28.6009 130.936 28.6817C130.568 29.5794 130.2 30.4681 129.823 31.3658C129.294 32.6226 128.737 33.8794 128.217 35.1451C128.118 35.3965 128.01 35.4952 127.705 35.4054C127.938 34.8399 128.145 34.2564 128.414 33.7088C128.549 33.4305 128.531 33.2151 128.414 32.9547C127.885 31.6621 127.373 30.3604 126.852 29.0587C126.834 28.951 126.816 28.8433 126.781 28.7356Z" fill="white"/>
<path d="M118.667 32.0859C118.658 32.2026 118.694 32.3462 118.64 32.436C117.913 33.621 116.199 33.7197 115.203 32.6515C114.476 31.8705 114.377 30.6137 114.969 29.6172C115.499 28.7285 116.567 28.3246 117.626 28.6208C118.093 28.7555 118.443 29.0517 118.676 29.4826C118.488 29.6442 118.371 29.6352 118.209 29.4198C117.886 28.9889 117.429 28.7465 116.881 28.8183C116.271 28.8991 115.903 29.3031 115.723 29.8686C115.481 30.6496 115.517 31.4306 115.822 32.1936C116.01 32.6604 116.307 33.0016 116.863 33.0644C117.491 33.1362 117.967 32.9028 118.317 32.3911C118.389 32.2834 118.452 32.1757 118.524 32.0769C118.577 32.0769 118.622 32.0769 118.667 32.0859Z" fill="white"/>
<path d="M133.845 28.9512C133.414 28.9512 133.064 28.9423 132.714 28.9512C132.373 28.9602 132.059 29.041 131.933 29.4091C131.807 29.7861 132.023 30.0285 132.319 30.217C132.687 30.4594 133.064 30.6658 133.423 30.9082C133.943 31.2673 134.177 31.8059 134.033 32.2817C133.872 32.8472 133.396 33.2063 132.732 33.2153C132.238 33.2153 131.745 33.1614 131.251 33.1255C131.179 33.1166 131.116 33.0447 131.071 32.9011C131.242 32.9011 131.421 32.8921 131.592 32.9011C131.861 32.9191 132.13 32.9639 132.391 32.955C132.75 32.937 133.073 32.7934 133.154 32.3984C133.225 32.0393 133.037 31.77 132.75 31.5815C132.418 31.366 132.077 31.1685 131.745 30.9531C131.287 30.6658 131.009 30.2619 131.098 29.7143C131.197 29.1308 131.583 28.7448 132.193 28.6909C132.678 28.655 133.172 28.6909 133.665 28.7089C133.71 28.7178 133.746 28.8256 133.845 28.9512Z" fill="white"/>
<path d="M138.557 30.9806C138.557 31.5462 138.575 32.022 138.548 32.5067C138.53 32.8478 138.683 32.9556 138.997 32.9556C139.607 32.9466 140.217 32.9556 140.828 32.9556C140.837 32.9915 140.855 33.0274 140.864 33.0633C140.783 33.1171 140.702 33.2069 140.621 33.2069C139.823 33.2159 139.024 33.2249 138.234 33.2069C137.812 33.1979 137.641 32.8748 137.632 32.5067C137.615 31.4833 137.615 30.46 137.632 29.4366C137.641 28.9249 137.884 28.6915 138.404 28.6736C139.069 28.6556 139.742 28.6556 140.415 28.6646C140.523 28.6646 140.63 28.7544 140.738 28.7992C140.72 28.8441 140.711 28.898 140.693 28.9429C140.173 28.9429 139.643 28.9429 139.122 28.9429C138.638 28.9518 138.557 29.0326 138.557 29.5174C138.557 29.9034 138.557 30.2804 138.557 30.6754C139.167 30.7203 139.751 30.7562 140.334 30.8011C140.334 30.8011 140.334 30.8819 140.334 30.9717C139.751 30.9806 139.176 30.9806 138.557 30.9806Z" fill="white"/>
<path d="M102.305 30.7287C102.942 30.7287 103.516 30.7287 104.082 30.7287C104.1 30.7646 104.118 30.8095 104.136 30.8454C104.046 30.8993 103.956 30.989 103.866 30.998C103.453 31.016 103.041 31.016 102.628 30.998C102.367 30.989 102.278 31.0878 102.287 31.3481C102.305 31.7162 102.296 32.0842 102.296 32.4523C102.296 32.8203 102.457 32.9909 102.843 32.964C103.301 32.937 103.75 32.955 104.207 32.955C104.342 32.955 104.477 32.955 104.62 32.955C104.629 32.9999 104.638 33.0448 104.656 33.0896C104.566 33.1345 104.477 33.2153 104.387 33.2153C103.606 33.2243 102.825 33.2333 102.035 33.2153C101.64 33.2063 101.425 32.946 101.416 32.5869C101.389 31.5187 101.389 30.4504 101.416 29.3911C101.425 28.9423 101.694 28.6999 102.152 28.6909C102.933 28.673 103.714 28.682 104.566 28.7717C104.477 28.8346 104.378 28.9513 104.288 28.9513C103.795 28.9692 103.292 28.9603 102.798 28.9603C102.511 28.9603 102.323 29.0859 102.305 29.3732C102.287 29.8041 102.305 30.244 102.305 30.7287Z" fill="white"/>
<path d="M74.1938 28.8021C74.0951 28.856 73.9964 28.9368 73.8977 28.9458C73.4399 28.9637 72.9912 28.9458 72.5334 28.9548C72.0847 28.9548 71.9501 29.0984 71.9411 29.5382C71.9411 29.9153 71.9411 30.3013 71.9411 30.6783C72.5693 30.7322 73.1437 30.7771 73.7182 30.8399C73.7182 30.8399 73.7182 30.9207 73.7182 30.9925C73.1437 30.9925 72.5783 30.9925 71.9501 30.9925C71.9501 31.585 71.9321 32.1505 71.968 32.7071C71.977 32.8058 72.2373 32.9495 72.3809 32.9584C72.9014 32.9854 73.4309 32.9674 73.9605 32.9764C74.0502 32.9764 74.14 33.0482 74.2297 33.0841C74.149 33.129 74.0682 33.2188 73.9874 33.2277C73.2155 33.2367 72.4527 33.2367 71.6808 33.2367C71.3038 33.2367 71.0884 33.0123 71.0884 32.6532C71.0705 31.5491 71.0615 30.4359 71.0884 29.3228C71.0974 28.9458 71.3487 28.7034 71.7616 28.6944C72.5424 28.6854 73.3233 28.6944 74.1041 28.6944C74.14 28.7214 74.1669 28.7573 74.1938 28.8021Z" fill="white"/>
<path d="M135.308 33.1907C135.308 31.7724 135.308 30.3809 135.308 29.0075C134.976 28.8279 134.527 29.1331 134.204 28.6573C135.218 28.6573 136.107 28.6574 136.995 28.6663C137.085 28.6663 137.175 28.7471 137.265 28.792C137.166 28.8459 137.076 28.9356 136.977 28.9446C136.726 28.9626 136.475 28.9536 136.188 28.9536C136.188 30.3899 136.188 31.7724 136.188 33.1907C135.891 33.1907 135.631 33.1907 135.308 33.1907Z" fill="white"/>
<path d="M107.78 28.9597C107.475 28.9597 107.161 28.9597 106.802 28.9597C106.802 30.3871 106.802 31.7785 106.802 33.2058C106.496 33.2058 106.236 33.2058 105.94 33.2058C105.94 31.8054 105.94 30.414 105.94 29.0226C105.581 28.9687 105.249 28.9148 104.917 28.861C104.908 28.861 104.917 28.7533 104.926 28.6814C105.814 28.6814 106.685 28.6725 107.564 28.6904C107.654 28.6904 107.744 28.7892 107.834 28.8341C107.816 28.87 107.798 28.9148 107.78 28.9597Z" fill="white"/>
<path d="M80.2074 33.2065C79.9292 33.2065 79.6779 33.2065 79.3996 33.2065C79.3996 31.6984 79.3996 30.1992 79.3996 28.6821C79.6599 28.6821 79.9202 28.6821 80.2074 28.6821C80.2074 30.1723 80.2074 31.6715 80.2074 33.2065Z" fill="white"/>
<path d="M112.806 28.6741C113.084 28.6741 113.345 28.6741 113.614 28.6741C113.614 30.1732 113.614 31.6724 113.614 33.1985C113.345 33.1985 113.093 33.1985 112.806 33.1985C112.806 31.7083 112.806 30.2181 112.806 28.6741Z" fill="white"/>
<path d="M79.8043 27.4997C79.4183 27.4907 79.194 27.2483 79.2029 26.8354C79.2119 26.5212 79.5171 26.225 79.8312 26.234C80.1184 26.2429 80.4594 26.5841 80.4594 26.8713C80.4594 27.2124 80.1543 27.4997 79.8043 27.4997Z" fill="white"/>
<path d="M113.793 26.8892C113.784 27.2393 113.488 27.5086 113.129 27.5086C112.824 27.4996 112.519 27.1765 112.528 26.8712C112.537 26.5481 112.878 26.2339 113.201 26.2518C113.515 26.2608 113.802 26.557 113.793 26.8892Z" fill="white"/>
</svg>
